<svg xmlns="http://www.w3.org/2000/svg" xmlns:xlink="http://www.w3.org/1999/xlink" viewBox="0 0 1024 1024"><defs><style>.cls-1{fill:url(#linear-gradient);}.cls-2,.cls-3,.cls-5,.cls-6{fill:none;}.cls-2,.cls-3,.cls-6{stroke:#010101;}.cls-2,.cls-3,.cls-4,.cls-5,.cls-6,.cls-7{stroke-miterlimit:10;}.cls-2,.cls-3{stroke-width:20px;}.cls-2{opacity:0.34;}.cls-3{opacity:0.33;}.cls-4,.cls-7{fill:#fff;}.cls-4,.cls-5,.cls-7{stroke:#fff;}.cls-4,.cls-6{stroke-width:8px;}.cls-5,.cls-7{stroke-width:30px;}</style><linearGradient id="linear-gradient" x1="201.1" y1="1050.5" x2="909.12" y2="-175.83" gradientUnits="userSpaceOnUse"><stop offset="0" stop-color="#d8df2a" stop-opacity="0.5"/><stop offset="0.49" stop-color="#d9df2a" stop-opacity="0.51"/><stop offset="0.67" stop-color="#dce129" stop-opacity="0.53"/><stop offset="0.79" stop-color="#e2e328" stop-opacity="0.56"/><stop offset="0.89" stop-color="#eae625" stop-opacity="0.61"/><stop offset="0.98" stop-color="#f5eb23" stop-opacity="0.68"/><stop offset="1" stop-color="#f8ec22" stop-opacity="0.7"/></linearGradient></defs><g id="Background"><rect class="cls-1" width="1024" height="1024"/></g><g id="shadows"><rect class="cls-2" x="265.34" y="459.33" width="111.86" height="411.15" rx="17.02"/><path class="cls-2" d="M357.7,319.14c-1.66,34.87-20,63.48-22.08,62.34-1-.57,2.38-8.17-.21-16.6-3-9.82-10.23-7.9-19.19-18.91-8.12-10-13.29-25.16-15.43-23.89a14.71,14.71,0,0,0-3.38,4h0s-6.85,8.88-8.28,18.92a36.09,36.09,0,0,0,2.26,17.41c3.42,8.73,9.23,12,8.28,15.93a4.93,4.93,0,0,1-3.11,3.16c-9.16,3.19-35.6-33.87-30.58-62.34,2.81-15.93,13.4-17.46,25.78-46.33a172.74,172.74,0,0,0,8.37-24.52c1.42-19.7,5.26-26.09,8.95-27.74C323.16,214.25,360.25,265.86,357.7,319.14Z"/><path class="cls-2" d="M376.3,831.31A411.74,411.74,0,0,0,469,859.54c27.6,5,63.47,11.16,107.63,4a253.2,253.2,0,0,0,28.43-6.33"/><path class="cls-2" d="M604.65,856.87a140.54,140.54,0,0,0,15.93-6.63c13.3-6.49,73.56-35.93,99-117.21,5.32-17,14.1-45,11-80.29-4.87-55.63-37.51-111.14-76.15-125.45C594.36,505,550.82,593.91,489,564.31c-5.17-2.47-19.78-9.71-33.88-28.46-5.23-7-25.63-34.9-28.74-79.37-2.8-39.94,10-69.55,18.79-89.88,18.47-42.74,43.71-63.36,60.42-76.93,29-23.55,54.42-30.26,71.93-34.66,49.9-12.53,94.54-3.66,128.2,9.27"/><path class="cls-2" d="M800.61,315.24a67.88,67.88,0,0,1-34.12,7.56c-4.35-.21-38.65-2.49-52.45-30.83-1-2-11.48-24.51,0-45.82,14-26,47.68-26.1,52.88-26.12a70.67,70.67,0,0,1,33.69,8.65Z"/><path class="cls-2" d="M746.68,544.21"/><line class="cls-3" x1="800.61" y1="249.67" x2="839.47" y2="249.67"/><line class="cls-3" x1="800.61" y1="291.76" x2="839.47" y2="291.21"/></g><g id="Layer_2" data-name="Layer 2"><rect class="cls-4" x="252.76" y="442.62" width="111.86" height="411.15" rx="17.02"/><path class="cls-4" d="M345.12,302.43c-1.66,34.87-20,63.48-22.08,62.33-1.05-.57,2.37-8.16-.21-16.59-3-9.82-10.23-7.9-19.2-18.91-8.11-10-13.29-25.16-15.43-23.89a14.9,14.9,0,0,0-3.38,4h0s-6.86,8.88-8.28,18.91a36.14,36.14,0,0,0,2.26,17.42c3.42,8.73,9.23,12,8.27,15.93a4.85,4.85,0,0,1-3.1,3.15c-9.17,3.19-35.6-33.86-30.58-62.33,2.81-15.94,13.4-17.46,25.78-46.33a174,174,0,0,0,8.37-24.52c1.42-19.7,5.26-26.09,8.94-27.74C310.58,197.54,347.67,249.15,345.12,302.43Z"/><path class="cls-5" d="M265.34,769.57A503.52,503.52,0,0,0,395.46,831c39.2,12,90.15,26.93,154.78,18a294.85,294.85,0,0,0,41.82-8.87"/><path class="cls-5" d="M592.06,840.15A140.15,140.15,0,0,0,608,833.53c13.29-6.5,73.55-35.94,99-117.22,5.32-17,14.09-45,11-80.28-4.88-55.63-37.51-111.14-76.15-125.45-60.09-22.25-103.63,66.62-165.49,37-5.16-2.48-19.78-9.72-33.87-28.46-5.24-7-25.63-34.9-28.75-79.37-2.79-39.94,10-69.55,18.79-89.88C451,307.15,476.27,286.53,493,273c29-23.54,54.42-30.26,71.93-34.65,49.9-12.53,94.54-3.66,128.2,9.27"/><path class="cls-5" d="M788,298.53a67.83,67.83,0,0,1-34.11,7.56c-4.35-.22-38.66-2.49-52.45-30.83-1-2-11.49-24.51,0-45.82,14-26,47.67-26.1,52.88-26.12A70.73,70.73,0,0,1,788,212Z"/><path class="cls-6" d="M734.1,527.5"/><line class="cls-5" x1="788.02" y1="232.96" x2="826.88" y2="232.96"/><line class="cls-7" x1="788.02" y1="275.05" x2="826.88" y2="274.5"/></g></svg>